<?xml version="1.0" standalone="no"?>
<!DOCTYPE svg PUBLIC "-//W3C//DTD SVG 20010904//EN"
 "http://www.w3.org/TR/2001/REC-SVG-20010904/DTD/svg10.dtd">
<svg version="1.0" xmlns="http://www.w3.org/2000/svg"
 width="1024.000000pt" height="1024.000000pt" viewBox="0 0 1024.000000 1024.000000"
 preserveAspectRatio="xMidYMid meet">
<metadata>
Created by potrace 1.16, written by Peter Selinger 2001-2019
</metadata>
<g transform="translate(0.000000,1024.000000) scale(0.100000,-0.100000)"
fill="#000000" stroke="none">
<path d="M5089 7981 l-29 -29 0 -172 c0 -182 9 -228 48 -249 33 -18 52 -13 86
22 l32 32 -2 190 -3 190 -26 22 c-36 31 -71 29 -106 -6z"/>
<path d="M4472 7797 c-29 -31 -29 -83 1 -124 47 -65 154 -198 188 -235 47 -49
86 -51 123 -7 28 33 33 67 14 102 -15 29 -177 235 -207 264 -33 31 -90 31
-119 0z"/>
<path d="M5703 7803 c-7 -2 -43 -44 -79 -91 -37 -48 -84 -105 -105 -127 -50
-53 -63 -88 -48 -132 13 -40 60 -69 87 -54 25 14 75 70 101 114 13 20 29 37
37 37 8 0 22 17 30 37 9 20 36 56 60 79 52 51 55 75 15 115 -28 28 -65 36 -98
22z"/>
<path d="M4107 7402 c-31 -19 -42 -49 -33 -87 6 -25 128 -134 243 -217 80 -58
110 -61 148 -16 48 57 27 97 -100 194 -38 29 -97 73 -129 98 -65 50 -86 55
-129 28z"/>
<path d="M6063 7378 c-176 -142 -234 -191 -243 -208 -19 -35 -11 -67 22 -95
48 -41 57 -37 243 112 50 39 98 85 108 101 35 60 13 107 -55 118 -28 5 -41 0
-75 -28z"/>
<path d="M5084 7001 c-29 -18 -236 -220 -288 -282 -34 -40 -35 -91 -1 -124 44
-45 77 -30 187 83 43 44 80 77 83 74 3 -3 5 -411 5 -908 l0 -902 26 -31 c32
-39 71 -41 108 -6 l28 26 -4 920 -3 921 55 -63 c104 -121 125 -139 160 -139
22 0 41 9 61 29 33 34 37 64 11 102 -23 34 -291 293 -319 307 -32 17 -74 15
-109 -7z"/>
<path d="M4090 6810 c-94 -3 -163 -10 -176 -17 -44 -25 -46 -83 -4 -124 l30
-30 184 3 c167 3 186 5 206 23 33 30 43 63 29 97 -13 33 -57 59 -91 56 -13 -1
-93 -4 -178 -8z"/>
<path d="M5950 6792 c-40 -40 -40 -79 0 -122 l30 -32 192 4 191 5 24 27 c30
36 30 80 -2 111 -23 24 -28 25 -177 25 -84 0 -170 3 -190 6 -32 6 -41 2 -68
-24z"/>
<path d="M4392 6411 c-24 -6 -159 -119 -255 -212 -54 -53 -58 -60 -55 -96 3
-32 9 -41 40 -58 47 -25 63 -17 166 85 42 42 99 91 125 110 47 34 77 74 77
103 0 20 -36 64 -57 69 -10 2 -28 2 -41 -1z"/>
<path d="M5842 6413 c-7 -3 -19 -18 -27 -34 -22 -42 -2 -83 71 -143 32 -28 93
-83 135 -123 66 -63 82 -73 112 -73 28 0 40 6 56 29 46 64 28 95 -143 241
-106 90 -135 110 -160 109 -17 0 -37 -3 -44 -6z"/>
<path d="M5522 6243 c-7 -3 -19 -18 -27 -33 -13 -25 -15 -123 -15 -659 l0
-630 26 -20 c33 -26 64 -27 96 -1 l25 19 5 638 c3 351 3 643 1 651 -11 28 -77
49 -111 35z"/>
<path d="M4694 6225 c-44 -30 -45 -40 -42 -682 l3 -612 22 -23 c28 -28 84 -29
113 -3 20 18 20 26 20 655 l0 637 -23 21 c-27 25 -64 28 -93 7z"/>
<path d="M6266 5380 c-41 -45 -44 -63 -18 -103 46 -68 103 -77 151 -22 46 53
38 101 -23 143 -46 31 -69 28 -110 -18z"/>
<path d="M3892 5394 c-22 -15 -52 -63 -52 -83 0 -17 53 -72 78 -82 56 -22 120
40 107 101 -8 35 -58 80 -89 80 -12 0 -32 -7 -44 -16z"/>
<path d="M6085 5378 c-53 -46 -19 -138 51 -138 28 0 74 41 74 65 0 29 -31 76
-56 85 -35 14 -39 13 -69 -12z"/>
<path d="M4081 5364 c-39 -50 -16 -115 45 -130 20 -5 32 0 56 24 39 38 40 77
4 109 -37 31 -79 30 -105 -3z"/>
<path d="M2930 4486 c-112 -24 -210 -107 -250 -212 -18 -48 -21 -74 -18 -140
5 -100 35 -168 106 -237 56 -55 156 -96 233 -97 54 0 159 30 207 60 58 36 72
71 72 190 0 58 -4 111 -8 118 -6 9 -50 15 -144 19 l-135 6 -7 -54 c-11 -84 -6
-89 73 -82 66 5 68 5 72 -18 11 -64 -16 -89 -99 -89 -139 0 -224 82 -226 215
-1 74 26 124 87 160 82 47 150 42 230 -19 l33 -25 54 51 53 51 -24 18 c-50 40
-126 77 -177 88 -62 13 -60 13 -132 -3z"/>
<path d="M3503 4478 c-24 -26 -27 -87 -25 -435 2 -168 5 -204 18 -217 13 -13
46 -16 208 -16 215 0 214 0 223 68 7 54 -13 72 -80 72 -29 0 -89 3 -134 7
l-82 6 -3 244 -3 245 -28 24 c-35 30 -67 31 -94 2z"/>
<path d="M4882 4490 c-19 -4 -39 -13 -45 -19 -7 -7 15 -87 78 -276 91 -275
140 -390 165 -390 24 0 77 80 100 152 12 37 32 86 45 108 12 22 30 61 40 88
10 26 21 47 25 47 4 0 12 -15 18 -32 48 -142 106 -287 127 -320 49 -74 91 -36
146 130 17 53 36 102 41 109 5 7 18 43 28 80 10 37 35 106 55 151 41 93 54
155 35 167 -23 14 -103 6 -121 -12 -9 -10 -43 -103 -75 -206 -34 -113 -60
-183 -65 -175 -4 7 -19 56 -34 108 -33 118 -83 249 -103 273 -9 10 -29 17 -53
17 -47 0 -71 -28 -94 -108 -39 -137 -79 -258 -90 -275 -11 -16 -15 -7 -34 65
-35 136 -81 272 -99 294 -21 27 -47 34 -90 24z"/>
<path d="M6282 4480 c-21 -20 -22 -28 -22 -224 0 -244 9 -284 78 -358 68 -72
111 -92 202 -92 64 1 86 6 145 34 l70 33 43 86 42 87 0 206 0 207 -26 20 c-34
27 -76 27 -100 0 -17 -19 -20 -43 -24 -224 -5 -222 -7 -230 -74 -279 -58 -44
-154 -14 -187 57 -16 37 -19 67 -19 234 l0 192 -26 20 c-34 27 -74 27 -102 1z"/>
<path d="M4295 4481 c-175 -46 -286 -218 -255 -393 15 -81 41 -130 98 -186 84
-81 191 -114 298 -92 85 18 131 44 196 112 46 48 60 72 77 128 12 37 21 88 21
112 0 44 -19 119 -40 158 -25 46 -87 103 -144 133 -51 25 -75 31 -141 33 -44
2 -93 0 -110 -5z m175 -153 c92 -47 136 -168 92 -254 -71 -139 -236 -160 -336
-42 -52 61 -62 100 -41 171 9 32 26 69 38 82 57 64 167 83 247 43z"/>
<path d="M7067 4476 c-15 -16 -17 -48 -17 -315 0 -287 1 -299 21 -325 25 -31
75 -35 108 -8 17 13 22 32 27 93 l7 75 61 0 c36 0 88 9 126 22 57 19 71 29
104 73 73 98 83 161 40 247 -28 56 -64 91 -128 124 -34 18 -64 22 -186 26
-128 4 -148 3 -163 -12z m299 -146 c58 -36 67 -118 19 -166 -21 -21 -33 -24
-104 -24 l-80 0 -3 101 c-2 55 -1 103 2 106 10 10 145 -4 166 -17z"/>
<path d="M5873 4201 c-28 -13 -43 -41 -43 -84 0 -54 16 -60 137 -55 95 4 108
7 125 28 23 28 23 62 0 90 -16 19 -30 23 -108 26 -49 2 -99 0 -111 -5z"/>
</g>
</svg>
