<svg xmlns="http://www.w3.org/2000/svg" width="802" height="340" viewBox="0 0 802 340" version="1.1">
	<path d="M 409.010 41.250 C 409.043 45.495, 415.800 55.616, 417.437 53.874 C 417.631 53.668, 416.660 50.462, 415.281 46.750 C 413.400 41.688, 412.301 40, 410.886 40 C 409.849 40, 409.004 40.563, 409.010 41.250 M 427.275 44.217 C 425.424 46.534, 422.841 52.175, 423.383 52.716 C 425.007 54.341, 431.511 47.077, 430.684 44.563 C 430.178 43.026, 428.373 42.843, 427.275 44.217 M 400 55.697 C 400 57.820, 407.046 61.303, 409.465 60.375 C 411.761 59.494, 411.348 58.633, 407.750 56.796 C 402.126 53.926, 400 53.624, 400 55.697 M 431 56.795 C 428.272 57.228, 426 58.740, 426 60.122 C 426 61.632, 432.690 61.079, 434.035 59.458 C 435.663 57.496, 434.272 56.275, 431 56.795 M 416 63.066 C 416 66.074, 414.177 69, 412.303 69 C 411.408 69, 408.767 70.119, 406.434 71.486 C 399.432 75.589, 394.854 88, 400.342 88 C 402.219 88, 402.928 87.182, 403.918 83.878 C 404.598 81.611, 406.192 78.717, 407.462 77.447 C 410.393 74.516, 416.982 72.718, 421.611 73.587 C 425.996 74.409, 431.269 79.453, 432.594 84.094 C 433.272 86.466, 434.239 87.597, 435.783 87.820 C 437.532 88.072, 437.995 87.649, 437.978 85.820 C 437.917 79.399, 431.125 70.845, 425.024 69.505 C 422.710 68.997, 422 68.292, 422 66.502 C 422 62.647, 420.920 61, 418.393 61 C 416.641 61, 416 61.554, 416 63.066 M 88.763 186.033 C 72.206 188.821, 56.915 199.815, 49.777 214.064 C 36.814 239.941, 46.891 272.517, 72 285.900 C 87.205 294.004, 110.511 294.613, 126.964 287.337 C 136.558 283.094, 136 284.884, 136 258.345 L 136 235 116 235 L 96 235 96 239 L 96 243 111.023 243 L 126.046 243 125.773 260.750 L 125.500 278.500 120 280.371 C 113.099 282.719, 97.338 283.628, 89.996 282.102 C 68.053 277.542, 52.633 257.356, 54.291 235.364 C 55.232 222.877, 61.044 211.812, 70.904 203.736 C 82.972 193.852, 102.952 191.929, 120.500 198.963 C 128.104 202.011, 128.997 201.835, 131.052 196.874 C 132.539 193.284, 132.359 193.105, 124 189.900 C 113.142 185.737, 99.447 184.234, 88.763 186.033 M 302.951 186.004 C 284.409 188.925, 268.618 201.724, 262.268 218.979 C 259.816 225.642, 259.500 227.869, 259.500 238.500 C 259.500 249.235, 259.803 251.323, 262.372 258.305 C 266.101 268.443, 272.212 276.623, 280.442 282.496 C 288.469 288.224, 294.089 290.451, 304.559 292.054 C 318.685 294.216, 333.450 289.969, 345.440 280.293 C 364.852 264.628, 370.482 236.454, 358.837 213.250 C 353.237 202.090, 341.629 192.162, 329.462 188.125 C 322.244 185.730, 310.600 184.798, 302.951 186.004 M 169.480 188.195 C 169.205 188.913, 169.097 212.225, 169.240 240 L 169.500 290.500 204.750 290.763 L 240 291.026 240 286.013 L 240 281 209.750 281 L 179.500 281.001 179.500 234.250 L 179.500 187.500 174.740 187.195 C 171.514 186.988, 169.818 187.310, 169.480 188.195 M 379 187.710 C 379 188.170, 380.390 192.135, 382.090 196.523 C 389.086 214.584, 406.172 260.585, 411.535 275.796 C 415.931 288.268, 417.649 292.022, 418.852 291.790 C 420.565 291.460, 425.394 279.079, 439.911 237.787 L 448.600 213.074 462.545 252.162 C 474.910 286.821, 477.793 293.540, 479.546 291.787 C 479.799 291.534, 484.220 279.441, 489.370 264.914 C 499.993 234.950, 514.575 195.836, 516.627 191.800 C 518.899 187.331, 518.466 186.876, 512.250 187.200 L 506.500 187.500 494.297 221.500 C 487.585 240.200, 481.331 258.111, 480.400 261.303 C 479.469 264.495, 478.397 266.745, 478.018 266.303 C 477.640 265.861, 474.739 258.075, 471.572 249 C 468.405 239.925, 463.878 227.100, 461.512 220.500 C 459.146 213.900, 455.742 204.225, 453.947 199 C 450.847 189.972, 448.684 185.983, 447.521 187.146 C 447.232 187.435, 443.146 198.883, 438.442 212.586 C 433.737 226.289, 427.597 244.161, 424.796 252.302 C 421.996 260.444, 419.380 266.744, 418.982 266.302 C 418.585 265.861, 417.119 262.125, 415.724 258 C 412.066 247.181, 390.895 188.562, 390.505 188.171 C 389.719 187.386, 379 186.956, 379 187.710 M 579.974 189.250 C 579.960 190.488, 579.971 206.193, 579.999 224.152 C 580.053 259.093, 580.373 261.872, 585.512 272.020 C 588.498 277.918, 596.698 285.514, 603.377 288.573 C 606.300 289.910, 612.280 291.513, 616.666 292.133 C 635.195 294.753, 654.910 285.875, 662.193 271.630 C 666.627 262.959, 666.976 259.365, 666.988 222.250 L 667 187 662.057 187 L 657.114 187 656.807 223.274 L 656.500 259.549 653.160 266.330 C 647.280 278.269, 636.973 283.581, 621.169 282.818 C 610.580 282.307, 604.724 279.712, 598.471 272.756 C 590.809 264.235, 590.652 263.278, 590.233 222.750 L 589.864 187 584.932 187 C 580.492 187, 579.997 187.224, 579.974 189.250 M 700 239 L 700 291 704.976 291 L 709.952 291 710.226 274.250 L 710.500 257.500 732.025 257 L 753.549 256.500 760.189 253.229 C 771.388 247.713, 777.850 237.834, 778.782 224.803 C 780.135 205.891, 768.881 191.274, 750.501 188.074 C 747.111 187.483, 734.361 187, 722.168 187 L 700 187 700 239 M 296.892 197.298 C 288.756 200.726, 284.567 203.549, 280.123 208.597 C 268.118 222.236, 265.621 243.575, 274.088 260.173 C 278.818 269.444, 290.449 278.970, 300.214 281.569 C 307.134 283.411, 317.366 283.377, 323.718 281.491 C 331.280 279.245, 340.592 272.560, 345.561 265.809 C 352.067 256.972, 354.272 250.297, 354.250 239.500 C 354.218 223.018, 347.888 210.097, 335.934 202.115 C 328.051 196.851, 324.605 195.856, 312.500 195.352 C 303.674 194.984, 301.842 195.213, 296.892 197.298 M 710 221.911 L 710 248 728.750 247.994 C 739.063 247.991, 749.176 247.523, 751.225 246.954 C 760.407 244.404, 767.939 234.776, 768.792 224.499 C 769.754 212.891, 764.849 203.599, 755.277 198.901 C 750.839 196.722, 749.063 196.530, 730.250 196.189 L 710 195.822 710 221.911 M 519 242 L 519 246 540 246 L 561 246 561 242 L 561 238 540 238 L 519 238 519 242" stroke="none" fill="#ffffff" fill-rule="evenodd"/>
</svg>