<?xml version="1.0" standalone="no"?>
<!DOCTYPE svg PUBLIC "-//W3C//DTD SVG 20010904//EN"
 "http://www.w3.org/TR/2001/REC-SVG-20010904/DTD/svg10.dtd">
<svg version="1.0" xmlns="http://www.w3.org/2000/svg"
 width="622.000000pt" height="583.000000pt" viewBox="0 0 622.000000 583.000000"
 preserveAspectRatio="xMidYMid meet">
<metadata>
Created by potrace 1.16, written by Peter Selinger 2001-2019
</metadata>
<g transform="translate(0.000000,583.000000) scale(0.100000,-0.100000)"
fill="#000000" stroke="none">
<path d="M3007 5009 c-9 -5 -24 -24 -33 -42 -15 -27 -16 -55 -10 -207 7 -171
8 -176 34 -202 33 -36 62 -35 101 1 l31 29 0 187 0 187 -29 29 c-30 30 -63 36
-94 18z"/>
<path d="M2371 4804 c-38 -49 -21 -100 63 -194 17 -19 53 -65 79 -101 68 -96
113 -119 164 -84 52 37 44 116 -19 184 -19 20 -54 63 -78 96 -79 108 -99 125
-146 125 -34 0 -47 -5 -63 -26z"/>
<path d="M3596 4799 c-14 -11 -47 -48 -73 -82 -26 -33 -71 -88 -100 -120 -44
-50 -53 -66 -53 -98 0 -41 29 -83 66 -93 25 -7 80 42 121 108 14 21 33 40 42
43 10 2 23 19 29 36 6 18 34 54 61 81 45 45 48 51 40 80 -18 63 -82 85 -133
45z"/>
<path d="M2030 4423 c-30 -11 -60 -47 -60 -73 0 -18 15 -40 53 -76 130 -125
252 -214 294 -214 34 0 73 43 73 80 0 44 -21 71 -108 136 -42 32 -103 79 -135
106 -55 45 -81 54 -117 41z"/>
<path d="M3997 4412 c-10 -4 -55 -40 -100 -79 -45 -39 -102 -86 -127 -105 -55
-42 -71 -78 -49 -116 23 -42 61 -56 101 -38 47 20 248 184 275 225 24 35 23
73 -1 99 -15 16 -75 24 -99 14z"/>
<path d="M2974 4001 c-69 -51 -292 -285 -299 -314 -16 -62 27 -115 83 -103 17
4 61 40 112 91 47 47 88 85 92 85 4 0 9 -409 10 -909 l3 -909 24 -26 c30 -32
69 -34 105 -5 l27 21 -1 915 c-1 503 1 917 3 920 3 2 33 -29 67 -69 82 -97
108 -118 147 -118 54 0 88 41 84 104 -1 21 -241 270 -305 317 -52 39 -100 39
-152 0z"/>
<path d="M1988 3821 c-148 -6 -158 -7 -182 -30 -14 -14 -26 -33 -26 -43 0 -28
27 -76 49 -88 11 -6 93 -10 191 -10 133 0 177 3 200 15 84 43 58 153 -37 159
-21 2 -109 0 -195 -3z"/>
<path d="M3865 3812 c-53 -27 -58 -76 -13 -128 l32 -36 195 5 c108 3 197 6
198 6 8 4 43 72 43 85 0 8 -12 29 -27 45 l-28 30 -188 3 c-138 2 -195 0 -212
-10z"/>
<path d="M2293 3419 c-30 -11 -289 -234 -303 -260 -6 -11 -10 -34 -8 -52 2
-26 10 -36 40 -50 22 -11 46 -16 58 -12 11 4 52 38 91 76 38 38 101 94 139
124 73 58 90 88 74 133 -11 31 -60 53 -91 41z"/>
<path d="M3732 3407 c-40 -42 -22 -102 45 -153 21 -15 80 -68 131 -116 78 -74
97 -88 125 -88 58 0 96 59 73 113 -12 30 -200 207 -264 249 -38 25 -84 23
-110 -5z"/>
<path d="M3409 3234 l-24 -26 -3 -634 -2 -635 26 -24 c36 -33 69 -32 105 4
l29 29 2 609 c1 334 1 619 0 633 -2 32 -45 70 -81 70 -17 0 -37 -10 -52 -26z"/>
<path d="M2584 3219 l-29 -30 2 -611 c1 -336 4 -622 7 -634 10 -37 59 -58 102
-44 19 6 39 20 45 31 6 13 9 228 6 651 l-3 631 -23 18 c-35 28 -73 24 -107
-12z"/>
<path d="M4178 2403 c-58 -63 -59 -93 -2 -142 46 -41 86 -41 125 -2 43 43 41
93 -7 137 -44 42 -81 44 -116 7z"/>
<path d="M1783 2388 c-41 -44 -45 -60 -23 -96 57 -94 181 -62 167 43 -11 82
-89 111 -144 53z"/>
<path d="M4003 2400 c-27 -11 -43 -40 -43 -79 0 -25 7 -36 33 -51 42 -26 69
-25 95 3 38 41 21 108 -31 127 -16 5 -30 10 -31 9 -1 0 -11 -4 -23 -9z"/>
<path d="M1981 2374 c-31 -39 -27 -77 10 -108 40 -34 64 -33 100 3 36 36 37
73 4 106 -34 35 -86 34 -114 -1z"/>
<path d="M860 1504 c-189 -36 -311 -184 -298 -363 11 -148 100 -265 234 -308
39 -13 88 -23 110 -23 85 0 223 57 259 107 18 25 20 42 18 147 -1 65 -4 120
-6 122 -2 2 -68 7 -145 11 l-142 6 0 -72 0 -71 69 6 c69 7 70 6 76 -19 16 -61
-17 -87 -108 -87 -127 0 -217 90 -217 215 0 96 56 163 156 186 45 10 55 9 95
-9 24 -11 58 -30 74 -41 l30 -20 52 49 51 50 -31 26 c-71 60 -202 102 -277 88z"/>
<path d="M1405 1485 l-25 -24 0 -304 c0 -282 1 -305 18 -320 16 -15 46 -17
215 -17 221 0 217 -1 217 77 0 51 -14 63 -70 63 -26 0 -89 3 -140 7 l-92 6 7
120 c4 65 4 176 0 245 -7 113 -10 128 -31 149 -30 30 -69 29 -99 -2z"/>
<path d="M2781 1500 c-61 -14 -63 0 44 -320 82 -243 103 -296 133 -338 l24
-33 25 23 c35 33 61 79 79 140 9 29 29 78 44 108 16 30 36 73 45 95 l17 40 20
-45 c11 -25 35 -89 53 -142 39 -112 59 -154 88 -185 46 -51 74 -20 137 158 23
63 50 143 60 178 18 58 46 128 72 175 5 10 15 37 22 60 16 52 5 86 -26 87 -49
2 -84 -3 -96 -15 -7 -7 -38 -93 -68 -192 -31 -98 -59 -183 -64 -187 -8 -9 -29
46 -50 133 -15 61 -70 210 -88 238 -11 17 -24 22 -53 22 -65 0 -68 -5 -148
-265 -31 -100 -46 -134 -54 -125 -3 3 -19 59 -36 124 -65 251 -90 287 -180
266z"/>
<path d="M4184 1489 c-17 -19 -19 -39 -19 -243 0 -221 0 -221 27 -272 77 -147
241 -201 385 -128 26 13 53 24 60 24 6 0 33 39 59 88 l48 87 4 193 c2 106 1
204 -2 217 -14 54 -112 71 -137 24 -6 -12 -14 -107 -17 -222 -7 -187 -9 -204
-29 -233 -44 -62 -142 -75 -195 -27 -39 36 -48 67 -48 180 0 59 -3 152 -7 206
-6 94 -7 99 -34 113 -39 20 -73 18 -95 -7z"/>
<path d="M2185 1486 c-103 -33 -190 -110 -223 -199 -26 -69 -29 -170 -7 -245
31 -103 162 -211 276 -227 95 -14 253 39 286 96 9 15 27 33 40 40 24 13 50 71
73 166 27 105 -38 257 -138 323 -86 57 -213 76 -307 46z m173 -141 c76 -32
122 -102 122 -185 0 -62 -16 -95 -69 -143 -50 -45 -99 -59 -160 -46 -65 14
-106 41 -137 90 -40 63 -44 90 -27 151 22 74 37 93 96 123 59 29 120 32 175
10z"/>
<path d="M4969 1483 c-11 -16 -14 -79 -13 -323 1 -302 1 -304 24 -322 30 -24
81 -23 108 2 19 18 22 32 22 94 l0 74 63 -1 c68 -2 207 38 207 59 0 6 8 18 17
25 9 8 29 34 45 58 40 64 40 148 0 212 -33 52 -83 96 -132 117 -24 10 -82 17
-181 20 -137 4 -147 3 -160 -15z m285 -137 c62 -26 83 -85 51 -146 -21 -41
-43 -50 -127 -50 l-73 0 -4 105 -3 105 62 0 c33 0 76 -6 94 -14z"/>
<path d="M3772 1210 c-41 -17 -56 -94 -24 -123 22 -20 153 -24 214 -7 54 15
68 73 28 114 -16 16 -36 20 -107 23 -48 2 -98 -1 -111 -7z"/>
</g>
</svg>
