<svg xmlns="http://www.w3.org/2000/svg" width="802" height="799" viewBox="0 0 802 799" version="1.1">
	<path d="M 409.465 217.750 C 410.577 222.235, 414.396 228.453, 416.260 228.812 C 418.188 229.183, 418.140 228.919, 414.709 220.250 C 413.208 216.455, 412.099 215, 410.708 215 C 409.110 215, 408.899 215.466, 409.465 217.750 M 427.275 219.217 C 425.424 221.534, 422.841 227.175, 423.383 227.716 C 425.007 229.341, 431.511 222.077, 430.684 219.563 C 430.178 218.026, 428.373 217.843, 427.275 219.217 M 400 230.747 C 400 233.040, 406.362 236.337, 409.105 235.467 C 411.804 234.610, 411.465 233.692, 407.750 231.796 C 402.078 228.901, 400 228.620, 400 230.747 M 430.500 231.724 C 425.370 232.985, 424.578 236, 429.378 236 C 432.876 236, 435.654 233.866, 434.527 232.044 C 433.850 230.948, 433.704 230.936, 430.500 231.724 M 416 238.066 C 416 241.397, 414.271 243.693, 411.286 244.329 C 406.477 245.353, 402.351 248.643, 400.137 253.218 C 397.225 259.232, 397.275 263, 400.265 263 C 402.080 263, 402.884 262.006, 404.308 257.995 C 406.244 252.544, 408.849 250.280, 414.727 248.939 C 422.662 247.128, 431.199 252.213, 432.579 259.572 C 433.099 262.340, 433.683 263, 435.611 263 C 438.754 263, 438.752 260.157, 435.603 253.394 C 433.705 249.317, 432.332 247.855, 428.797 246.144 C 426.361 244.965, 423.836 244, 423.184 244 C 422.533 244, 422 242.912, 422 241.582 C 422 237.647, 420.936 236, 418.393 236 C 416.641 236, 416 236.554, 416 238.066 M 90.500 360.632 C 74.421 363.117, 61.488 371.088, 52.963 383.767 C 46.262 393.734, 44.488 400.117, 44.560 414 C 44.612 424.005, 44.966 426.385, 47.287 432.309 C 52.298 445.098, 61.766 455.784, 73.265 461.628 C 87.878 469.053, 111.084 469.360, 126.964 462.337 C 136.558 458.094, 136 459.884, 136 433.345 L 136 410 115.943 410 L 95.885 410 96.193 414.216 L 96.500 418.432 111.273 418.139 L 126.047 417.847 125.773 435.673 L 125.500 453.500 120 455.342 C 112.990 457.689, 97.232 458.616, 90 457.107 C 65.159 451.924, 49.218 426.780, 55.495 402.680 C 56.318 399.522, 57.934 395.089, 59.088 392.827 C 61.666 387.774, 69.237 379.529, 74.171 376.401 C 87.072 368.224, 107.010 367.818, 124.255 375.384 L 128.010 377.031 130.001 373.766 C 131.097 371.970, 131.994 369.993, 131.996 369.373 C 132.001 367.997, 124.235 364.570, 116.339 362.464 C 110.294 360.851, 95.751 359.820, 90.500 360.632 M 302.763 360.971 C 290.329 363.226, 279.785 368.983, 271.795 377.878 C 263.245 387.396, 258.992 399.403, 259.012 413.960 C 259.039 433.178, 267.296 449.011, 282.452 458.905 C 303.331 472.535, 331.142 469.826, 348.554 452.466 C 362.022 439.037, 367.579 420.872, 363.997 401.986 C 360.664 384.412, 345.419 367.683, 328.107 362.605 C 321.386 360.633, 309.022 359.836, 302.763 360.971 M 169.480 363.195 C 169.205 363.913, 169.097 387.225, 169.240 415 L 169.500 465.500 204.750 465.763 L 240 466.026 240 461.013 L 240 456 210.010 456 L 180.020 456 179.760 409.250 L 179.500 362.500 174.740 362.195 C 171.514 361.988, 169.818 362.310, 169.480 363.195 M 379 362.979 C 379 363.512, 380.397 367.447, 382.104 371.724 C 386.369 382.407, 405.632 434.241, 412.047 452.294 C 416.016 463.463, 417.684 467.015, 418.857 466.789 C 419.826 466.602, 422.032 462.160, 424.714 454.995 C 430.335 439.976, 439.875 413.392, 444.702 399.292 L 448.540 388.083 457.869 414.292 C 463 428.706, 469.272 446.287, 471.806 453.361 C 475.929 464.870, 477.972 468.362, 479.618 466.715 C 479.910 466.423, 483.289 457.255, 487.125 446.342 C 496.367 420.052, 509.367 384.791, 514.150 373.042 C 516.267 367.840, 518 363.205, 518 362.742 C 518 362.279, 515.413 362.035, 512.250 362.200 L 506.500 362.500 496.276 391 C 490.653 406.675, 484.261 424.653, 482.072 430.951 C 479.883 437.249, 477.864 441.749, 477.585 440.951 C 477.307 440.153, 474.610 432.525, 471.592 424 C 468.575 415.475, 462.405 398.019, 457.883 385.209 C 452.031 368.636, 449.256 362.003, 448.260 362.209 C 447.430 362.382, 444.653 369.013, 441.437 378.500 C 424.133 429.546, 419.617 442.063, 418.947 440.836 C 418.546 440.101, 414.336 428.700, 409.591 415.500 C 396.402 378.807, 392.770 368.779, 391.437 365.384 C 390.281 362.438, 389.908 362.261, 384.607 362.139 C 381.523 362.068, 379 362.446, 379 362.979 M 579.411 366.742 C 579.020 369.350, 579.015 385.093, 579.400 401.727 C 580.137 433.629, 580.648 437.415, 585.512 447.020 C 588.505 452.930, 596.702 460.516, 603.418 463.591 C 611.946 467.495, 622.831 468.655, 632.435 466.683 C 647.674 463.554, 657.594 456.292, 663.418 444.003 L 666.500 437.500 666.805 399.750 L 667.110 362 662.112 362 L 657.114 362 656.807 398.274 L 656.500 434.549 653.160 441.330 C 647.272 453.283, 636.981 458.578, 621.112 457.820 C 608.224 457.203, 599.695 452.121, 594.500 441.960 C 590.644 434.417, 590 427.531, 590 393.816 L 590 362 585.061 362 L 580.123 362 579.411 366.742 M 700 414 L 700 466 704.976 466 L 709.952 466 710.226 449.250 L 710.500 432.500 732.025 432 L 753.549 431.500 760.189 428.229 C 771.388 422.713, 777.850 412.834, 778.782 399.803 C 780.112 381.215, 769.245 366.735, 751.254 363.122 C 748.099 362.489, 735.727 362, 722.833 362 L 700 362 700 414 M 298.487 371.799 C 287.174 375.711, 279.442 382.260, 274.385 392.214 C 261.261 418.044, 273.732 448.868, 300.409 456.536 C 309.697 459.206, 321.018 458.250, 329.485 454.082 C 346.732 445.591, 356.658 427.155, 354.055 408.444 C 352.010 393.739, 347.052 385.121, 336.053 377.154 C 326.782 370.437, 309.534 367.979, 298.487 371.799 M 710 396.897 L 710 423 728.750 422.994 C 739.063 422.991, 749.176 422.523, 751.225 421.954 C 760.407 419.404, 767.939 409.776, 768.792 399.499 C 769.753 387.912, 765.239 379.241, 755.649 374.253 C 750.655 371.655, 749.892 371.563, 730.250 371.185 L 710 370.795 710 396.897 M 519.193 417.250 L 519.500 421.500 540 421.406 L 560.500 421.313 560.807 417.156 L 561.115 413 540 413 L 518.885 413 519.193 417.250" stroke="none" fill="#ffffff" fill-rule="evenodd"/>
</svg>