<?xml version="1.0" standalone="no"?>
<!DOCTYPE svg PUBLIC "-//W3C//DTD SVG 20010904//EN"
 "http://www.w3.org/TR/2001/REC-SVG-20010904/DTD/svg10.dtd">
<svg version="1.0" xmlns="http://www.w3.org/2000/svg"
 width="1024.000000pt" height="1024.000000pt" viewBox="0 0 1024.000000 1024.000000"
 preserveAspectRatio="xMidYMid meet">
<metadata>
Created by potrace 1.16, written by Peter Selinger 2001-2019
</metadata>
<g transform="translate(0.000000,1024.000000) scale(0.100000,-0.100000)"
fill="#000000" stroke="none">
<path d="M5145 8342 c-66 -41 -65 -37 -65 -404 0 -305 2 -336 19 -375 32 -70
110 -94 176 -53 62 38 64 50 66 418 2 318 2 334 -17 359 -50 66 -125 89 -179
55z"/>
<path d="M3914 8001 c-73 -44 -92 -107 -55 -180 19 -37 163 -265 240 -379 21
-31 55 -82 75 -114 55 -85 124 -109 191 -68 35 21 65 81 65 126 0 31 -13 57
-57 111 -43 54 -218 328 -263 411 -18 35 -46 74 -62 88 -36 30 -90 32 -134 5z"/>
<path d="M6415 8009 c-44 -12 -72 -47 -167 -209 -79 -133 -104 -172 -211 -329
-43 -62 -48 -108 -17 -159 30 -48 77 -74 125 -68 50 6 99 59 150 163 20 39 42
74 50 76 7 3 26 33 40 66 15 33 32 58 36 55 5 -3 18 14 28 38 10 24 31 54 46
68 36 33 85 138 85 183 0 76 -89 138 -165 116z"/>
<path d="M5016 7180 c-156 -25 -391 -109 -531 -192 -163 -96 -399 -317 -495
-464 -153 -233 -221 -473 -221 -772 0 -281 78 -546 225 -766 108 -163 310
-355 481 -459 130 -79 328 -152 475 -177 185 -30 461 -23 615 16 159 41 416
166 538 263 88 70 255 247 281 299 10 20 26 46 36 57 37 43 123 200 155 283
69 180 100 411 84 619 -23 283 -125 529 -320 769 -151 186 -401 365 -629 451
-147 56 -262 76 -455 79 -99 1 -207 -1 -239 -6z m412 -251 c139 -22 357 -112
477 -197 178 -127 331 -313 410 -500 51 -122 74 -218 85 -356 23 -299 -47
-561 -209 -788 -195 -272 -496 -459 -793 -494 l-58 -7 0 764 0 764 24 -25 c13
-14 88 -97 165 -185 168 -189 188 -205 254 -205 42 0 54 5 82 33 44 44 55 97
29 145 -10 19 -150 168 -312 333 -329 334 -335 339 -414 303 -30 -13 -128
-104 -333 -309 -159 -159 -298 -301 -307 -315 -36 -51 -12 -151 44 -181 33
-18 102 -15 132 4 14 10 44 43 67 74 53 72 288 305 300 297 5 -3 9 -325 9
-754 l0 -748 -92 20 c-261 56 -444 153 -624 332 -120 119 -202 240 -262 383
-80 194 -100 322 -83 532 12 148 54 322 103 426 93 199 302 406 540 535 217
116 500 161 766 119z"/>
<path d="M3025 7068 c-11 -6 -32 -22 -47 -36 -34 -31 -38 -91 -9 -137 12 -20
112 -94 286 -209 234 -157 273 -180 315 -184 41 -4 51 -1 79 24 21 19 35 44
42 73 13 60 -10 106 -74 146 -97 60 -265 173 -375 253 -100 72 -119 82 -155
82 -23 0 -51 -6 -62 -12z"/>
<path d="M7195 7003 c-61 -42 -173 -118 -250 -168 -78 -51 -156 -110 -174
-130 -30 -34 -33 -43 -28 -84 7 -65 58 -111 122 -111 56 0 83 13 171 86 38 31
130 96 204 145 171 111 217 151 231 199 22 73 -36 140 -123 140 -38 0 -57 -9
-153 -77z"/>
<path d="M2694 5852 c-82 -53 -86 -140 -9 -212 l27 -25 343 0 344 0 30 29 c62
59 64 134 5 186 -34 29 -38 30 -133 30 -54 0 -205 3 -337 6 -227 5 -241 5
-270 -14z"/>
<path d="M7024 5851 c-82 -50 -86 -139 -9 -211 l27 -25 338 -2 c329 -3 338 -2
364 18 32 25 66 89 66 124 0 38 -26 83 -60 100 -24 13 -84 15 -362 15 -310 0
-335 -1 -364 -19z"/>
<path d="M3496 4950 c-26 -17 -91 -63 -144 -104 -53 -40 -155 -112 -227 -158
-71 -47 -139 -95 -149 -107 -29 -32 -32 -108 -6 -149 25 -40 81 -66 126 -58
17 4 83 42 145 86 63 43 165 114 227 157 221 152 231 162 239 235 6 54 -7 82
-50 108 -48 29 -104 26 -161 -10z"/>
<path d="M6777 4962 c-42 -28 -56 -53 -57 -100 0 -48 17 -87 52 -118 22 -21
442 -306 516 -351 69 -42 141 -23 177 47 29 56 14 109 -47 166 -18 17 -98 75
-178 128 -80 54 -193 131 -253 172 -118 81 -156 91 -210 56z"/>
<path d="M4255 4260 c-45 -19 -106 -106 -267 -390 -14 -25 -53 -83 -87 -130
-52 -72 -61 -91 -61 -128 0 -134 134 -187 231 -90 16 17 46 62 66 101 19 39
57 104 85 146 27 41 59 93 70 115 11 23 37 61 57 85 85 104 100 147 75 210
-30 76 -101 110 -169 81z"/>
<path d="M6075 4252 c-62 -39 -86 -106 -60 -168 9 -21 37 -72 64 -114 26 -41
65 -106 86 -145 21 -38 76 -127 121 -196 86 -132 117 -159 181 -159 58 0 103
59 103 136 0 39 -49 138 -140 284 -26 41 -78 129 -117 195 -39 66 -85 133
-101 148 -39 37 -96 45 -137 19z"/>
<path d="M5149 4017 c-67 -45 -69 -54 -69 -420 0 -355 2 -374 54 -415 63 -49
141 -30 183 44 22 38 23 46 23 377 0 378 0 376 -68 415 -50 28 -80 28 -123 -1z"/>
<path d="M7079 3773 c-62 -53 -80 -160 -36 -224 29 -44 83 -79 119 -79 81 0
158 78 158 160 0 56 -43 131 -89 154 -49 26 -114 21 -152 -11z"/>
</g>
</svg>
